<svg id="Layer_1" data-name="Layer 1" xmlns="http://www.w3.org/2000/svg" viewBox="0 0 381.22 380.91"><defs><style>.cls-1{fill:#5a6432;}</style></defs><path class="cls-1" d="M563.71,280.64A190.24,190.24,0,0,1,372,470.76c-105-.43-189.84-85.93-189.47-190.9a190,190,0,0,1,191.25-190C479.29,90.19,564.07,175.32,563.71,280.64ZM541.13,280c.14-85.57-66.09-160.48-155.3-167-96.33-7.11-174.31,65.86-180.35,155.6A167.78,167.78,0,0,0,364.39,447.87C462.22,452.87,541.68,374.41,541.13,280Z" transform="translate(-182.49 -89.86)"/><path class="cls-1" d="M337,310c9-9.22,17.9-18.61,27.05-27.79,27.16-27.26,54.47-54.37,81.57-81.67,6.19-6.24,13.27-7.5,21.06-4.71,11.82,4.23,19.47,12.47,21.92,25,1.25,6.37-.56,11.78-5.17,16.38q-52.71,52.59-105.35,105.23-12,12-24.05,24c-11.77,11.76-24.51,11.75-36.51-.17-9.56-9.51-19-19.16-28.52-28.71-8.11-8.15-16.09-16.43-24.45-24.32-6.9-6.52-7.86-14.21-4.75-22.4,4.54-11.94,13.29-19.4,26.13-21.27,5.73-.84,10.72,1.14,14.91,5.38,11.25,11.36,22.64,22.59,34,33.86A17,17,0,0,0,337,310Z" transform="translate(-182.49 -89.86)"/></svg>